<svg width="325" height="54" viewBox="0 0 325 54" fill="none" xmlns="http://www.w3.org/2000/svg">
<path d="M68.7114 13.8072H59.7074V40.1888H68.7114C76.0419 40.1888 81.9124 34.3228 81.9124 26.998C81.9124 19.6731 76.0419 13.8115 68.7114 13.8115V13.8072ZM68.7114 34.3228H65.7784V19.6644H68.7114C72.7341 19.6644 75.8328 22.813 75.8328 26.9936C75.8328 31.1743 72.7341 34.3185 68.7114 34.3185V34.3228Z" fill="#BAD0AC"/>
<path d="M94.6994 13.8072H85.6866V40.1888H94.6994C102.03 40.1888 107.9 34.3228 107.9 26.998C107.9 19.6731 102.03 13.8115 94.6994 13.8115V13.8072ZM94.6994 34.3228H91.7663V19.6644H94.6994C98.7177 19.6644 101.821 22.813 101.821 26.9936C101.821 31.1743 98.7177 34.3185 94.6994 34.3185V34.3228Z" fill="#BAD0AC"/>
<path d="M136.19 30.1335C136.233 30.1335 141.258 28.0823 141.219 22.1815C141.219 17.609 137.493 13.8072 131.997 13.8072H121.311V40.1888H127.395V31.392H130.533L135.348 40.1888H142.06L136.19 30.1335ZM131.997 25.5304H127.39V19.6644H131.997C134.132 19.6644 135.348 20.9186 135.348 22.5996C135.348 24.2806 134.137 25.5304 131.997 25.5304Z" fill="#BAD0AC"/>
<path d="M151.282 34.3228V29.7198H163.014V23.8538H151.282V19.6644H164.06V13.8072H145.198V40.1888H164.483V34.3228H151.282Z" fill="#BAD0AC"/>
<path d="M168.671 13.8072V40.1888H174.747V13.8072H168.671Z" fill="#BAD0AC"/>
<path d="M195.914 13.8072V29.2973L185.228 13.8072H179.78V40.1888H185.856V24.6943L196.542 40.1888H201.99V13.8072H195.914Z" fill="#BAD0AC"/>
<path d="M207.023 13.8072V40.1888H213.099V13.8072H207.023Z" fill="#BAD0AC"/>
<path d="M229.86 25.9483V30.9738H235.731C235.06 32.646 233.264 34.5317 229.86 34.5317C226.051 34.5317 222.948 31.3483 222.948 26.9935C222.948 22.6386 226.051 19.4509 229.86 19.4509C232.776 19.4509 234.576 21.0709 235.347 22.8085H241.806C240.551 17.9441 236.149 13.5936 229.86 13.5936C222.7 13.5936 216.873 19.4509 216.873 26.9935C216.873 34.536 222.696 40.389 229.86 40.389C232.209 40.389 234.053 39.7227 235.356 39.052C236.11 38.6775 236.781 38.2202 237.404 37.6672L238.459 40.1843H242.652V25.944H229.865L229.86 25.9483Z" fill="#BAD0AC"/>
<path d="M262.551 13.8072V29.5064C262.551 32.6898 260.708 34.5319 257.736 34.5319C254.763 34.5319 252.92 32.6898 252.92 29.5064V13.8072H246.844V29.5064C246.844 35.9951 251.251 40.3891 257.74 40.3891C264.229 40.3891 268.64 35.9994 268.64 29.5064V13.8072H262.556H262.551Z" fill="#BAD0AC"/>
<path d="M289.38 13.8072V29.2973L278.69 13.8072H273.246V40.1888H279.317V24.6943L290.004 40.1888H295.451V13.8072H289.38Z" fill="#BAD0AC"/>
<path d="M312.217 25.9483V30.9738H318.088C317.421 32.646 315.617 34.5317 312.217 34.5317C308.404 34.5317 305.305 31.3483 305.305 26.9935C305.305 22.6386 308.404 19.4509 312.217 19.4509C315.129 19.4509 316.933 21.0709 317.7 22.8085H324.159C322.904 17.9441 318.502 13.5936 312.217 13.5936C305.053 13.5936 299.226 19.4509 299.226 26.9935C299.226 34.536 305.048 40.389 312.217 40.389C314.562 40.389 316.41 39.7227 317.713 39.052C318.467 38.6775 319.134 38.2202 319.766 37.6672L320.807 40.1843H325V25.944H312.217V25.9483Z" fill="#BAD0AC"/>
<path d="M19.0393 0H0.00332207V31.8445C0.00332207 37.8638 4.85621 42.7435 10.8426 42.7435H18.9163C23.0945 42.7435 27.0167 41.1058 30.0015 38.1446C33.0263 35.1032 34.6583 31.0624 34.5918 26.751C34.4589 18.0412 26.9734 11.2365 18.308 11.2365H10.7628V37.289C7.81781 37.289 5.42792 34.8893 5.42792 31.9247V5.45448H19.0892C30.7494 5.45448 40.8009 14.5219 41.1964 26.2396C41.4025 32.2656 39.1622 37.9641 34.9342 42.2354C30.8657 46.3096 25.4943 48.5455 19.7805 48.5455H5.4246C2.42977 48.5455 0 50.9887 0 54H19.7805C26.9402 54 33.6678 51.1992 38.7666 46.0923C44.1746 40.6345 46.9833 33.3017 46.5978 25.6046C45.8731 11.1195 33.4584 0 19.0393 0ZM16.1841 16.691H18.913C24.5736 16.691 29.1639 21.3099 29.1639 26.9983C29.1639 29.7423 28.0969 32.3425 26.1624 34.2877C24.2279 36.2161 21.6419 37.289 18.913 37.289H16.1841V16.691Z" fill="#BAD0AC"/>
</svg>
